<svg width="100" height="100" viewBox="0 0 100 100" fill="none" xmlns="http://www.w3.org/2000/svg">
<circle cx="50" cy="50" r="50" fill="#000511"/>
<path d="M68.0575 54.1075C68.6258 54.1075 69.0908 53.9267 69.4525 53.565C69.8142 53.2033 69.995 52.7383 69.995 52.17C69.995 51.6017 69.8142 51.1367 69.4525 50.775C69.0908 50.4133 68.6258 50.2325 68.0575 50.2325H58.7575C58.1892 50.2325 57.7242 50.4133 57.3625 50.775C57.0008 51.1367 56.82 51.6017 56.82 52.17C56.82 52.7383 57.0008 53.2033 57.3625 53.565C57.7242 53.9267 58.1892 54.1075 58.7575 54.1075H68.0575ZM68.0575 62.865C68.6258 62.865 69.0908 62.6842 69.4525 62.3225C69.8142 61.9608 69.995 61.4958 69.995 60.9275C69.995 60.3592 69.8142 59.8942 69.4525 59.5325C69.0908 59.1708 68.6258 58.99 68.0575 58.99H58.7575C58.1892 58.99 57.7242 59.1708 57.3625 59.5325C57.0008 59.8942 56.82 60.3592 56.82 60.9275C56.82 61.4958 57.0008 61.9608 57.3625 62.3225C57.7242 62.6842 58.1892 62.865 58.7575 62.865H68.0575ZM58.06 34.5H76.35C77.59 34.5 78.675 34.965 79.605 35.895C80.535 36.825 81 37.91 81 39.15V76.35C81 77.59 80.535 78.675 79.605 79.605C78.675 80.535 77.59 81 76.35 81H23.65C22.41 81 21.325 80.535 20.395 79.605C19.465 78.675 19 77.59 19 76.35V39.15C19 37.91 19.465 36.825 20.395 35.895C21.325 34.965 22.41 34.5 23.65 34.5H42.0175V23.65C42.0175 22.41 42.4825 21.325 43.4125 20.395C44.3425 19.465 45.4275 19 46.6675 19H53.41C54.65 19 55.735 19.465 56.665 20.395C57.595 21.325 58.06 22.41 58.06 23.65V34.5ZM46.6675 39.15H53.41V23.65H46.6675V39.15ZM40.235 58.99C41.4233 58.99 42.4179 58.5767 43.2188 57.75C44.0196 56.9233 44.42 55.9417 44.42 54.805C44.42 53.6167 44.0196 52.6221 43.2188 51.8212C42.4179 51.0204 41.4233 50.62 40.235 50.62C39.0983 50.62 38.1167 51.0204 37.29 51.8212C36.4633 52.6221 36.05 53.6167 36.05 54.805C36.05 55.9417 36.4633 56.9233 37.29 57.75C38.1167 58.5767 39.0983 58.99 40.235 58.99ZM30.78 68.0575H49.3025V66.9725C49.3025 66.0425 49.07 65.2158 48.605 64.4925C48.14 63.7692 47.5458 63.2783 46.8225 63.02C45.1692 62.4517 43.8775 62.0771 42.9475 61.8962C42.0175 61.7154 41.1133 61.625 40.235 61.625C39.2533 61.625 38.2071 61.7412 37.0963 61.9738C35.9854 62.2062 34.7325 62.555 33.3375 63.02C32.5625 63.2783 31.9425 63.7692 31.4775 64.4925C31.0125 65.2158 30.78 66.0425 30.78 66.9725V68.0575ZM42.0175 39.15H23.65V76.35H76.35V39.15H58.06C58.06 40.5967 57.5821 41.7333 56.6262 42.56C55.6704 43.3867 54.4692 43.8 53.0225 43.8H46.9775C45.5825 43.8 44.4071 43.3867 43.4512 42.56C42.4954 41.7333 42.0175 40.5967 42.0175 39.15Z" fill="white"/>
</svg>
