<svg width="100" height="100" viewBox="0 0 100 100" fill="none" xmlns="http://www.w3.org/2000/svg">
<circle cx="50" cy="50" r="50" fill="#000511"/>
<path d="M48.4711 81C48.0051 81 47.5683 80.9559 47.1606 80.8677C46.7529 80.7795 46.3451 80.6178 45.9374 80.3826L25.843 69.2703C25.0275 68.7999 24.3723 68.1532 23.8772 67.33C23.3821 66.5069 23.1346 65.5955 23.1346 64.596V46.6046L14.3105 41.7539C13.8445 41.5187 13.5096 41.1954 13.3058 40.7838C13.1019 40.3722 13 39.9312 13 39.4609C13 38.9905 13.1019 38.5496 13.3058 38.138C13.5096 37.7264 13.8445 37.403 14.3105 37.1679L45.9374 19.7055C46.3451 19.4704 46.7529 19.294 47.1606 19.1764C47.5683 19.0588 48.0051 19 48.4711 19C48.937 19 49.3739 19.0588 49.7816 19.1764C50.1893 19.294 50.597 19.4704 51.0047 19.7055L85.6021 38.6671C86.0681 38.9611 86.4175 39.3139 86.6505 39.7255C86.8835 40.137 87 40.578 87 41.0484V64.7724C87 65.5368 86.7525 66.1688 86.2574 66.6686C85.7623 67.1683 85.1362 67.4182 84.379 67.4182C83.6218 67.4182 82.9957 67.1683 82.5006 66.6686C82.0055 66.1688 81.758 65.5368 81.758 64.7724V42.5477L73.8076 46.6046V64.596C73.8076 65.5955 73.56 66.5069 73.0649 67.33C72.5699 68.1532 71.9146 68.7999 71.0992 69.2703L51.0047 80.3826C50.597 80.6178 50.1893 80.7795 49.7816 80.8677C49.3739 80.9559 48.937 81 48.4711 81ZM48.4711 54.6302L75.9917 39.4609L48.4711 24.5562L21.1251 39.4609L48.4711 54.6302ZM48.4711 75.7966L68.5655 64.596V49.7795L51.0047 59.3044C50.597 59.5396 50.1893 59.7013 49.7816 59.7895C49.3739 59.8777 48.937 59.9218 48.4711 59.9218C48.0051 59.9218 47.5828 59.8777 47.2043 59.7895C46.8257 59.7013 46.4325 59.5396 46.0248 59.3044L28.3766 49.6031V64.596L48.4711 75.7966Z" fill="white"/>
</svg>
