<svg width="100" height="100" viewBox="0 0 100 100" fill="none" xmlns="http://www.w3.org/2000/svg">
<circle cx="50" cy="50" r="50" fill="white"/>
<path fill-rule="evenodd" clip-rule="evenodd" d="M49.9972 0.0173005C22.3891 0.0173005 0 22.9675 0 51.2759C0 73.9254 14.3244 93.1331 34.1909 99.9142C36.6915 100.389 37.6105 98.7998 37.6105 97.445C37.6105 96.2228 37.5607 92.1852 37.5404 87.9054C23.6294 91.0065 20.697 81.8548 20.697 81.8548C18.4232 75.9289 15.1457 74.3529 15.1457 74.3529C10.6095 71.1685 15.4908 71.2385 15.4908 71.2385C20.5104 71.5981 23.1532 76.5174 23.1532 76.5174C27.6156 84.3542 34.8534 82.0856 37.7046 80.7781C38.1549 77.4652 39.4468 75.2024 40.8788 73.9215C29.7727 72.6293 18.0984 68.2322 18.0984 48.5892C18.0984 42.9944 20.0546 38.4195 23.2491 34.8321C22.7288 33.5381 21.0162 28.3274 23.7308 21.2682C23.7308 21.2682 27.9292 19.889 37.4851 26.5224C41.4713 25.3891 45.7471 24.8177 49.9936 24.7988C54.2435 24.8177 58.5269 25.3872 62.5187 26.5224C72.0616 19.8928 76.2562 21.2682 76.2562 21.2682C78.9746 28.3294 77.2695 33.5437 76.749 34.8322C79.9546 38.4195 81.8942 42.9944 81.8942 48.5892C81.8942 68.2776 70.194 72.6064 59.0639 73.876C60.8578 75.4653 62.4596 78.5853 62.4596 83.3645C62.4596 90.2194 62.4024 95.744 62.4024 97.4298C62.4024 98.794 63.303 100.389 65.8386 99.8894C85.6939 93.1047 100 73.8948 100 51.2587C100 22.954 77.6146 0 50.0009 0L49.9973 0.0171403L49.9972 0.0173005Z" fill="#000511"/>
</svg>
